<svg width="512" height="448" viewBox="0 0 512 448" fill="none" xmlns="http://www.w3.org/2000/svg">
<path d="M165.4 64H346.6C360.2 64 372.3 72.6 376.8 85.4L402.9 160H109.1L135.2 85.4C139.7 72.6 151.8 64 165.4 64ZM74.8 64.3L39.6 164.8C16.4 174.4 0 197.3 0 224V304C0 327.7 12.9 348.4 32 359.4V416C32 433.7 46.3 448 64 448H96C113.7 448 128 433.7 128 416V368H384V416C384 433.7 398.3 448 416 448H448C465.7 448 480 433.7 480 416V359.4C499.1 348.3 512 327.7 512 304V224C512 197.3 495.6 174.4 472.4 164.8L437.2 64.3C423.7 25.8 387.4 0 346.6 0H165.4C124.6 0 88.3 25.8 74.8 64.3ZM208 240H304C312.8 240 320 247.2 320 256V288C320 296.8 312.8 304 304 304H208C199.2 304 192 296.8 192 288V256C192 247.2 199.2 240 208 240ZM48 248C48 234.7 58.7 224 72 224H104C117.3 224 128 234.7 128 248C128 261.3 117.3 272 104 272H72C58.7 272 48 261.3 48 248ZM408 224H440C453.3 224 464 234.7 464 248C464 261.3 453.3 272 440 272H408C394.7 272 384 261.3 384 248C384 234.7 394.7 224 408 224Z" fill="url(#paint0_linear_607_1255)"/>
<defs>
<linearGradient id="paint0_linear_607_1255" x1="256" y1="0" x2="256" y2="448" gradientUnits="userSpaceOnUse">
<stop stop-color="#103B6E"/>
<stop offset="0.5" stop-color="#1A5FB4"/>
<stop offset="1" stop-color="#62A0EA"/>
</linearGradient>
</defs>
</svg>
