<svg width="576" height="384" viewBox="0 0 576 384" fill="none" xmlns="http://www.w3.org/2000/svg">
<path d="M64 0C28.7 0 0 28.7 0 64V320C0 355.3 28.7 384 64 384H512C547.3 384 576 355.3 576 320V64C576 28.7 547.3 0 512 0H64ZM272 128H496C504.8 128 512 135.2 512 144C512 152.8 504.8 160 496 160H272C263.2 160 256 152.8 256 144C256 135.2 263.2 128 272 128ZM256 240C256 231.2 263.2 224 272 224H496C504.8 224 512 231.2 512 240C512 248.8 504.8 256 496 256H272C263.2 256 256 248.8 256 240ZM164 88V101.9C171.5 103.1 178.6 104.8 185.1 106.6C195.8 109.4 202.1 120.4 199.3 131.1C196.5 141.8 185.5 148.1 174.8 145.3C163.8 142.4 153.2 140.3 143.6 140.1C135.7 140 127.6 141.9 122.1 145.1C117.3 147.9 115.9 150.7 115.9 154.4C115.9 156.2 116 157.9 121.2 161.1C127.5 164.9 136.7 167.8 149.5 171.6L150.2 171.8C161.4 175.2 175.8 179.5 187.3 186.8C200.2 194.9 211.6 208.1 211.9 228.4C212.2 249.3 201.4 264.5 187.1 273.4C179.9 277.9 171.9 280.7 163.9 282.4V296.2C163.9 307.2 154.9 316.2 143.9 316.2C132.9 316.2 123.9 307.2 123.9 296.2V281.6C113.6 279.4 103.9 276.1 95.7 273.2C93.6 272.5 91.6 271.8 89.6 271.1C79.1 267.6 73.5 256.3 77 245.8C80.5 235.3 91.8 229.7 102.3 233.2C104.8 234 107.2 234.9 109.5 235.6C123.1 240.2 133.5 243.7 144.6 244.1C153.2 244.4 161.1 242.5 166 239.4C170.1 236.9 172 233.9 171.9 228.9C171.9 226 171.1 223.9 166 220.7C159.7 216.7 150.6 213.8 138 210L136.3 209.5C125.4 206.2 111.7 202.1 100.7 195.5C88 187.8 76.1 175 76 154.8C75.9 133.7 87.8 119.1 101.8 110.9C108.7 106.8 116.3 104.1 124 102.4V88.4C124 77.4 133 68.4 144 68.4C155 68.4 164 77.4 164 88.4V88Z" fill="url(#paint0_linear_607_1260)"/>
<defs>
<linearGradient id="paint0_linear_607_1260" x1="288" y1="0" x2="288" y2="384" gradientUnits="userSpaceOnUse">
<stop stop-color="#103B6E"/>
<stop offset="0.5" stop-color="#1A5FB4"/>
<stop offset="1" stop-color="#62A0EA"/>
</linearGradient>
</defs>
</svg>
